<svg xmlns="http://www.w3.org/2000/svg" viewBox="0 0 72 72"><defs><style>.cls-1{isolation:isolate;}.cls-2{mix-blend-mode:multiply;}.cls-3{fill:#71c8e6;}.cls-4{fill:none;}</style></defs><title>business</title><g class="cls-1"><g id="Layer_2" data-name="Layer 2"><g id="grid_copy" data-name="grid copy" class="cls-2"><path class="cls-3" d="M7.2,54V39.54h7.2V45H18V39.54H32.4V45H36V39.54h4.59a19.94,19.94,0,0,1,6.21-4.95v-13H36V14.4H28.8V7.2H50.4V21.6H64.8v13a20.08,20.08,0,0,1,3.6,2.35V18.43L54,3.6H25.2V14.4H14.4v7.2H3.6v36H36.77a19.41,19.41,0,0,1-.68-3.6ZM54,8.77,63,18H54ZM18,18H32.4v3.6H18ZM7.2,25.2h36V35.94H36V34.2H32.4v1.74H18V34.2H14.4v1.74H7.2ZM55.8,36A16.2,16.2,0,1,0,72,52.2,16.22,16.22,0,0,0,55.8,36Zm0,28.8a12.6,12.6,0,1,1,9.41-20.95L54,55.05l-5.93-5.92-2.54,2.54L54,60.15,67.23,46.92A12.58,12.58,0,0,1,55.8,64.8Z"/><rect class="cls-4" width="72" height="72"/></g></g></g></svg>