<svg xmlns="http://www.w3.org/2000/svg" viewBox="0 0 72 72"><defs><style>.cls-1{fill:#71c8e6;}.cls-2{fill:none;}</style></defs><title>call-center</title><g id="Layer_2" data-name="Layer 2"><g id="expanded-2_2" data-name="expanded-2/2"><path class="cls-1" d="M46.8,36H43.2A7.21,7.21,0,0,0,36,28.8V25.2A10.81,10.81,0,0,1,46.8,36ZM36,18v3.6A14.42,14.42,0,0,1,50.4,36H54A18,18,0,0,0,36,18Zm0-7.2v3.6A21.62,21.62,0,0,1,57.6,36h3.6A25.22,25.22,0,0,0,36,10.8ZM20.73,20.72,12.49,29A84.52,84.52,0,0,0,43,59.51l8.24-8.25L45.21,45.2,39.68,47l-2.11.7L36,46.17,25.82,36,24.26,34.4l.7-2.11,1.84-5.52-6.07-6.05m0-5.08L30.92,25.79l-2.55,7.64,10.17,10.2,7.64-2.55L56.36,51.26,43.64,64A89,89,0,0,1,8,28.36L20.73,15.64Z"/><rect class="cls-2" width="72" height="72"/></g></g></svg>