<svg xmlns="http://www.w3.org/2000/svg" viewBox="0 0 72 72"><defs><style>.cls-1{fill:#71c8e6;}.cls-2{fill:none;}</style></defs><title>community-tensions</title><g id="Layer_2" data-name="Layer 2"><g id="expanded-2_2" data-name="expanded-2/2"><path class="cls-1" d="M46.8,14.4H43.2V7.2h3.6Zm10.93-1.18-2.55-2.55-5.09,5.09,2.55,2.55ZM61.2,21.6H54v3.6h7.2ZM21.6,36H18v3.6h3.6Zm0-14.4H18V32.4h3.6ZM50.4,50.4H46.8V54h3.6Zm0-14.4H46.8V46.8h3.6ZM39.62,28.8V14.4H0V46.8H10.82V54h1.8a9.57,9.57,0,0,0,8.78-7.2h7.44V61.2H47a9.57,9.57,0,0,0,8.78,7.2h1.8V61.2H68.4V28.8ZM18,43.2V45a6,6,0,0,1-3.6,5V43.2H3.6V18H36V28.8H28.84V43.2ZM64.8,57.6H54v6.79a6,6,0,0,1-3.6-5V57.6h-18V32.4H64.8Z"/><rect class="cls-2" width="72" height="72"/></g></g></svg>