<svg xmlns="http://www.w3.org/2000/svg" viewBox="0 0 72 72"><defs><style>.cls-1{fill:#71c8e6;}.cls-2{fill:none;}</style></defs><title>community-service</title><g id="Layer_2" data-name="Layer 2"><g id="expanded-2_2" data-name="expanded-2/2"><path class="cls-1" d="M27,37.8a5.4,5.4,0,1,0-5.4,5.4A5.4,5.4,0,0,0,27,37.8Zm-5.4,1.8a1.8,1.8,0,1,1,1.8-1.8A1.81,1.81,0,0,1,21.6,39.6Zm19.8-1.8A5.4,5.4,0,1,0,36,43.2,5.4,5.4,0,0,0,41.4,37.8ZM36,39.6a1.8,1.8,0,1,1,1.8-1.8A1.81,1.81,0,0,1,36,39.6Zm19.8-1.8a5.4,5.4,0,1,0-5.4,5.4A5.4,5.4,0,0,0,55.8,37.8Zm-5.4,1.8a1.8,1.8,0,1,1,1.8-1.8A1.81,1.81,0,0,1,50.4,39.6ZM10.8,41.4H7.2V39.6a28.8,28.8,0,0,1,57.6,0v1.8H61.2V39.6a25.2,25.2,0,0,0-50.4,0ZM64.66,55.56A14.41,14.41,0,0,0,43.18,45.14a14.26,14.26,0,0,0-14.36,0A14.4,14.4,0,0,0,7.35,55.54l-.3,2.06h18l.22-1.55a10.8,10.8,0,0,1,21.38,0l.22,1.55H65ZM22.05,54H11.42a10.81,10.81,0,0,1,14.25-6.41A14.4,14.4,0,0,0,22.05,54ZM50,54a14.32,14.32,0,0,0-3.62-6.43A10.82,10.82,0,0,1,60.59,54Z"/><rect class="cls-2" width="72" height="72"/></g></g></svg>