<svg xmlns="http://www.w3.org/2000/svg" viewBox="0 0 72.4 72"><defs><style>.cls-1{fill:#71c8e6;}.cls-2{fill:none;}</style></defs><title>finance-statements</title><g id="Layer_2" data-name="Layer 2"><g id="expanded-2_2" data-name="expanded-2/2"><path class="cls-1" d="M28.8,43.2H25.2V54h3.6ZM36,32.4H32.4V54H36ZM21.6,46.8H18V54h3.6ZM54,25.2v7.53a20.34,20.34,0,0,0-3.6.74V28.8H36V14.4H10.8V57.6H37.12a19.51,19.51,0,0,0,1.37,3.6H7.2V10.8H39.6Zm-14.4,0h9.31L39.6,15.89ZM72.4,52.4A16.2,16.2,0,1,0,56.2,68.6,16.22,16.22,0,0,0,72.4,52.4Zm-3.6,0A12.6,12.6,0,1,1,56.2,39.8,12.61,12.61,0,0,1,68.8,52.4Zm-7.2,3.15A5,5,0,0,1,58,60.2v1.2H54.4V60.21a5,5,0,0,1-3.6-4.66h3.6c0,.73.82,1.35,1.8,1.35s1.8-.62,1.8-1.35-.82-1.35-1.8-1.35a5.19,5.19,0,0,1-5.4-5,5,5,0,0,1,3.6-4.66V43.4H58v1.2a5,5,0,0,1,3.6,4.65H58c0-.73-.82-1.35-1.8-1.35s-1.8.62-1.8,1.35.82,1.35,1.8,1.35A5.19,5.19,0,0,1,61.6,55.55Z"/><rect class="cls-2" width="72" height="72"/></g></g></svg>