<svg xmlns="http://www.w3.org/2000/svg" viewBox="0 0 72 72"><defs><style>.cls-1{isolation:isolate;}.cls-2{mix-blend-mode:multiply;}.cls-3{fill:#71c8e6;}.cls-4{fill:none;}</style></defs><title>info-tech</title><g class="cls-1"><g id="Layer_2" data-name="Layer 2"><g id="grid_copy" data-name="grid copy" class="cls-2"><path class="cls-3" d="M20.55,32.4H16.2V28.8h2.85l9.75-9.75V16.2h3.6v4.35ZM39.6,24.15V9H36V22.65L22.65,36H9v3.6H24.15ZM55.8,28.8V25.2H44.25l-18,18h-10v3.6H27.75l18-18ZM32.4,47.85V55.8H36V49.35L49.35,36H63V32.4H47.85Zm7.2,3.6V63h3.6V53L53,43.2H55.8V39.6H51.45ZM32.4,9H28.8v3.6h3.6ZM12.6,28.8H9v3.6h3.6ZM9,46.8h3.6V43.2H9ZM59.4,25.2v3.6H63V25.2Zm0,18H63V39.6H59.4ZM32.4,63H36V59.4H32.4Z"/><rect class="cls-4" width="72" height="72"/></g></g></g></svg>