<svg xmlns="http://www.w3.org/2000/svg" viewBox="0 0 72 72"><defs><style>.cls-1{isolation:isolate;}.cls-2{mix-blend-mode:multiply;}.cls-3{fill:#71c8e6;}.cls-4{fill:none;}</style></defs><title>map-gis</title><g class="cls-1"><g id="Layer_2" data-name="Layer 2"><g id="grid_copy" data-name="grid copy" class="cls-2"><path class="cls-3" d="M39.6,28.8a7.2,7.2,0,1,0-7.2-7.2A7.2,7.2,0,0,0,39.6,28.8Zm0-10.8A3.6,3.6,0,1,1,36,21.6,3.6,3.6,0,0,1,39.6,18Zm18,3.6A18,18,0,1,0,25.22,32.4H10.8V64.8H57.6V32.4H54A17.87,17.87,0,0,0,57.6,21.6ZM39.6,7.2A14.42,14.42,0,0,1,54,21.6a14.22,14.22,0,0,1-3.16,9l-4.68,5.85h0l-6.56,8.2-11.25-14a14.23,14.23,0,0,1-3.15-9A14.42,14.42,0,0,1,39.6,7.2ZM15,36H28.07l2.49,3.11-6,9.07Zm-.61,5.06L30.12,61.2H14.4ZM54,61.2H34.68l-7.83-10,6.07-9.11L39.6,50.4,51.13,36H54Z"/><rect class="cls-4" width="72" height="72"/></g></g></g></svg>