<svg xmlns="http://www.w3.org/2000/svg" viewBox="0 0 72 72"><defs><style>.cls-1{isolation:isolate;}.cls-2{mix-blend-mode:multiply;}.cls-3{fill:#71c8e6;}.cls-4{fill:none;}</style></defs><title>news</title><g class="cls-1"><g id="Layer_2" data-name="Layer 2"><g id="grid_copy" data-name="grid copy" class="cls-2"><path class="cls-3" d="M57.24,61.2H14.4A7.21,7.21,0,0,1,7.2,54V28.8H18v-18H64.8V53.64A7.57,7.57,0,0,1,57.24,61.2ZM20.63,57.6H57.24a4,4,0,0,0,4-4V14.4H21.6V54A7.1,7.1,0,0,1,20.63,57.6ZM10.8,32.4V54A3.6,3.6,0,0,0,18,54V32.4Zm46.8,0H25.2V18H57.6ZM28.8,28.8H54V21.6H28.8ZM43.2,36h-18v3.6h18Zm0,7.2h-18v3.6h18Zm0,7.2h-18V54h18ZM57.6,54H46.8V36H57.6Zm-7.2-3.6H54V39.6H50.4Z"/><rect class="cls-4" width="72" height="72"/><rect class="cls-4" width="72" height="72"/></g></g></g></svg>