<svg xmlns="http://www.w3.org/2000/svg" viewBox="0 0 72 72"><defs><style>.cls-1{isolation:isolate;}.cls-2{mix-blend-mode:multiply;}.cls-3{fill:#71c8e6;}.cls-4{fill:none;}</style></defs><title>pay-utility</title><g class="cls-1"><g id="Layer_2" data-name="Layer 2"><g id="grid_copy" data-name="grid copy" class="cls-2"><path class="cls-3" d="M55.8,36A16.2,16.2,0,1,0,72,52.2,16.22,16.22,0,0,0,55.8,36Zm0,28.8A12.6,12.6,0,1,1,68.4,52.2,12.61,12.61,0,0,1,55.8,64.8ZM54,49.05c0,.73.82,1.35,1.8,1.35a5.19,5.19,0,0,1,5.4,5A5,5,0,0,1,57.6,60V61.2H54V60a5,5,0,0,1-3.6-4.65H54c0,.73.82,1.35,1.8,1.35s1.8-.62,1.8-1.35S56.78,54,55.8,54a5.19,5.19,0,0,1-5.4-5A5,5,0,0,1,54,44.4V43.2h3.6v1.19a5,5,0,0,1,3.6,4.66H57.6c0-.73-.82-1.35-1.8-1.35S54,48.32,54,49.05ZM36,50.4V36H21.6V50.4H14.4v-18h0L28.8,18,43.2,32.4h25L46.57,10.8h-25L0,32.4H10.8V54H25.2V39.6h7.2V54h3.69C36,53.41,36,52.81,36,52.2s0-1.21.09-1.8Zm9.08-36,14.4,14.4H44.69L30.29,14.4ZM8.69,28.8l14.4-14.4H25.2l1.05,1L12.91,28.8Z"/><rect class="cls-4" width="72" height="72"/></g></g></g></svg>