<svg xmlns="http://www.w3.org/2000/svg" viewBox="0 0 72 72"><defs><style>.cls-1{isolation:isolate;}.cls-2{mix-blend-mode:multiply;}.cls-3{fill:#71c8e6;}.cls-4{fill:none;}</style></defs><title>police-discipline</title><g class="cls-1"><g id="Layer_2" data-name="Layer 2"><g id="grid_copy" data-name="grid copy" class="cls-2"><path class="cls-3" d="M28.8,54H10.88A19.77,19.77,0,0,1,17.8,40.73l11,8.06V44.33l-7.88-5.78a19.77,19.77,0,0,1,7.88-2.46V30.28a5.4,5.4,0,0,1-3.6-5.08H27a3.6,3.6,0,0,1,7.2,0h5.4L43.2,18,30.6,10.8,18,18l3.6,7.2h0a9,9,0,0,0,4.31,7.67A23.44,23.44,0,0,0,7.2,55.8v1.8H28.8Zm-5-32.4-1.08-2.16L30.6,15l7.86,4.49L37.38,21.6h-.55a7.19,7.19,0,0,0-12.46,0Zm41,39.6H32.4V28.8H64.8ZM36,57.6H61.2V32.4H36ZM57.6,36H46.8v3.6H57.6Zm0,7.2H46.8v3.6H57.6Zm0,7.2H46.8V54H57.6ZM43.2,36H39.6v3.6h3.6Zm0,7.2H39.6v3.6h3.6Zm0,7.2H39.6V54h3.6Z"/><rect class="cls-4" width="72" height="72"/><rect class="cls-4" width="72" height="72"/></g></g></g></svg>