<svg xmlns="http://www.w3.org/2000/svg" viewBox="0 0 72 72"><defs><style>.cls-1{fill:#71c8e6;}.cls-2{fill:none;}</style></defs><title>street-operations</title><g id="Layer_2" data-name="Layer 2"><g id="expanded-2_2" data-name="expanded-2/2"><path class="cls-1" d="M72,34.2V30.6a10.81,10.81,0,0,0-10.64,9H57.6V28.8L46.8,18H32.4V32.4H0V43.2H4.57A7.2,7.2,0,1,0,17,43.2H38.77a7.2,7.2,0,1,0,12.46,0H61.36A10.81,10.81,0,0,0,72,52.2V48.6a7.2,7.2,0,0,1,0-14.4ZM10.8,50.4a3.6,3.6,0,1,1,3.6-3.6A3.6,3.6,0,0,1,10.8,50.4ZM32.4,39.6H3.6V36H32.4ZM45,50.4a3.6,3.6,0,1,1,3.6-3.6A3.6,3.6,0,0,1,45,50.4Zm9-10.8H36v-18h9.31L54,30.29Z"/><rect class="cls-2" width="72" height="72"/></g></g></svg>