<svg xmlns="http://www.w3.org/2000/svg" viewBox="0 0 72 72"><defs><style>.cls-1{isolation:isolate;}.cls-2{mix-blend-mode:multiply;}.cls-3{fill:#71c8e6;}.cls-4{fill:none;}</style></defs><title>towed-vehicle</title><g class="cls-1"><g id="Layer_2" data-name="Layer 2"><g id="grid_copy" data-name="grid copy" class="cls-2"><path class="cls-3" d="M10.8,36a3.6,3.6,0,0,1,3.6,3.6H28.8a3.6,3.6,0,1,1,7.2,0H46.8V32.4a7.2,7.2,0,0,0-7.2-7.2H36L28.8,18H7.2L0,25.2V39.6H7.2A3.6,3.6,0,0,1,10.8,36ZM30.91,25.2H21.6V21.6h5.71ZM8.69,21.6H18v3.6H5.09ZM4.57,36h-1V28.8h36a3.6,3.6,0,0,1,3.6,3.6V36H38.63a7.19,7.19,0,0,0-12.46,0H17A7.19,7.19,0,0,0,4.57,36ZM72,29.85,63.75,21.6H50.4V43.2H0v3.6H4.57A7.2,7.2,0,1,0,17,46.8H51.37a7.2,7.2,0,1,0,12.46,0H72ZM10.8,54a3.6,3.6,0,1,1,3.6-3.6A3.6,3.6,0,0,1,10.8,54Zm46.8,0a3.6,3.6,0,1,1,3.6-3.6A3.61,3.61,0,0,1,57.6,54ZM68.4,43.2H54v-18h8.25l6.15,6.15Z"/><rect class="cls-4" width="72" height="72"/></g></g></g></svg>